<?xml version="1.0" standalone="no"?>
<!DOCTYPE svg PUBLIC "-//W3C//DTD SVG 20010904//EN"
 "http://www.w3.org/TR/2001/REC-SVG-20010904/DTD/svg10.dtd">
<svg version="1.0" xmlns="http://www.w3.org/2000/svg"
 width="200.000000pt" height="200.000000pt" viewBox="0 0 200.000000 200.000000"
 preserveAspectRatio="xMidYMid meet">
<metadata>
Created by potrace 1.11, written by Peter Selinger 2001-2013
</metadata>
<g transform="translate(0.000000,200.000000) scale(0.100000,-0.100000)"
fill="#000000" stroke="none">
<path d="M865 1950 c-508 -79 -867 -547 -814 -1063 24 -232 119 -435 280 -596
209 -209 497 -312 782 -281 398 44 717 316 835 711 l19 67 -59 27 c-258 119
-400 390 -344 655 14 67 50 153 85 205 l20 31 -67 49 c-102 75 -258 150 -365
175 -104 25 -280 34 -372 20z m321 -236 c122 -31 229 -87 316 -166 l37 -33
-10 -55 c-6 -30 -9 -95 -6 -145 9 -148 68 -280 175 -391 l55 -55 -13 -57 c-49
-225 -212 -426 -422 -521 -427 -194 -918 42 -1040 498 -26 97 -28 266 -4 365
72 299 322 527 631 577 67 10 209 2 281 -17z"/>
<path d="M760 1573 c-51 -19 -66 -77 -30 -113 41 -41 110 -13 110 43 0 18 -4
37 -8 43 -7 10 -47 35 -54 33 -2 0 -10 -3 -18 -6z"/>
<path d="M790 1428 c0 -2 32 -84 70 -182 72 -185 78 -206 59 -206 -10 0 -153
75 -307 162 -42 24 -53 27 -50 14 1 -9 76 -56 173 -109 155 -85 170 -96 176
-125 8 -37 20 -29 -209 -152 -143 -77 -154 -81 -171 -66 -41 37 -111 7 -111
-48 0 -54 46 -82 98 -60 23 9 34 22 38 42 5 25 27 40 192 130 158 85 192 99
220 95 39 -6 68 15 77 56 5 22 38 50 157 131 139 94 156 103 194 101 57 -3 82
23 74 79 -11 78 -136 55 -128 -24 3 -27 -7 -36 -150 -134 -139 -95 -155 -103
-170 -89 -9 8 -28 17 -41 19 -21 3 -32 25 -95 185 -39 102 -77 183 -83 183 -7
0 -13 -1 -13 -2z"/>
<path d="M437 1302 c-22 -25 -21 -75 1 -95 42 -39 122 -7 122 48 0 56 -86 88
-123 47z"/>
<path d="M1070 1205 c0 -18 -5 -25 -20 -25 -11 0 -20 -4 -20 -9 0 -5 9 -11 20
-14 12 -3 20 -14 20 -26 0 -12 5 -21 10 -21 6 0 10 9 10 20 0 13 7 20 20 20
11 0 20 7 20 15 0 8 -9 15 -20 15 -15 0 -20 7 -20 25 0 14 -4 25 -10 25 -5 0
-10 -11 -10 -25z"/>
<path d="M1030 932 c0 -4 72 -79 159 -166 145 -145 159 -162 154 -188 -3 -17
1 -37 11 -53 29 -44 114 -27 117 23 4 53 -22 84 -67 80 -30 -2 -46 11 -193
155 -145 142 -181 172 -181 149z"/>
<path d="M962 718 c-7 -106 -12 -201 -12 -210 0 -10 -6 -18 -14 -18 -8 0 -24
-12 -36 -27 -38 -48 -8 -103 56 -103 35 0 49 12 59 51 5 19 0 33 -19 56 l-25
29 9 145 c5 79 12 172 14 207 4 47 2 62 -8 62 -9 0 -16 -48 -24 -192z"/>
</g>
</svg>
