<?xml version="1.0" encoding="UTF-8"?>
<svg xmlns="http://www.w3.org/2000/svg" xmlns:xlink="http://www.w3.org/1999/xlink" width="43pt" height="22pt" viewBox="0 0 43 22" version="1.1">
<defs>
<clipPath id="clip1">
  <path d="M 0 0.425781 L 42.871094 0.425781 L 42.871094 22 L 0 22 L 0 0.425781 Z M 0 0.425781 "/>
</clipPath>
<clipPath id="clip2">
  <path d="M 0 0.425781 L 42.871094 0.425781 L 42.871094 22 L 0 22 L 0 0.425781 Z M 0 0.425781 "/>
</clipPath>
<clipPath id="clip3">
  <path d="M 0 0.425781 L 42.871094 0.425781 L 42.871094 22 L 0 22 L 0 0.425781 Z M 0 0.425781 "/>
</clipPath>
</defs>
<g id="surface0">
<path style=" stroke:none;fill-rule:nonzero;fill:rgb(0.784314%,42.352941%,60.784314%);fill-opacity:1;" d="M 37.582031 10.8125 L 42.550781 0.628906 L 8.140625 0.628906 L 0.402344 10.8125 L 37.582031 10.8125 "/>
<g clip-path="url(#clip1)" clip-rule="nonzero">
<path style="fill:none;stroke-width:0.4;stroke-linecap:butt;stroke-linejoin:miter;stroke:rgb(100%,100%,100%);stroke-opacity:1;stroke-miterlimit:4;" d="M 37.582031 11.1875 L 42.550781 21.371094 L 8.140625 21.371094 L 0.402344 11.1875 L 37.582031 11.1875 Z M 37.582031 11.1875 " transform="matrix(1,0,0,-1,0,22)"/>
</g>
<path style=" stroke:none;fill-rule:nonzero;fill:rgb(0.784314%,42.352941%,60.784314%);fill-opacity:1;" d="M 42.550781 9.871094 L 42.550781 0.628906 L 37.582031 10.8125 L 37.582031 21.800781 L 42.550781 9.871094 "/>
<g clip-path="url(#clip2)" clip-rule="nonzero">
<path style="fill:none;stroke-width:0.4;stroke-linecap:butt;stroke-linejoin:miter;stroke:rgb(100%,100%,100%);stroke-opacity:1;stroke-miterlimit:4;" d="M 42.550781 12.128906 L 42.550781 21.371094 L 37.582031 11.1875 L 37.582031 0.199219 L 42.550781 12.128906 Z M 42.550781 12.128906 " transform="matrix(1,0,0,-1,0,22)"/>
</g>
<path style=" stroke:none;fill-rule:nonzero;fill:rgb(0.784314%,42.352941%,60.784314%);fill-opacity:1;" d="M 37.582031 21.800781 L 37.582031 10.8125 L 0.398438 10.8125 L 0.410156 21.800781 L 37.582031 21.800781 "/>
<g clip-path="url(#clip3)" clip-rule="nonzero">
<path style="fill:none;stroke-width:0.4;stroke-linecap:butt;stroke-linejoin:miter;stroke:rgb(100%,100%,100%);stroke-opacity:1;stroke-miterlimit:4;" d="M 37.582031 0.199219 L 37.582031 11.1875 L 0.398438 11.1875 L 0.410156 0.199219 L 37.582031 0.199219 Z M 37.582031 0.199219 " transform="matrix(1,0,0,-1,0,22)"/>
</g>
<path style=" stroke:none;fill-rule:nonzero;fill:rgb(0.784314%,42.352941%,60.784314%);fill-opacity:1;" d="M 4.320312 17.855469 L 6.570312 17.855469 L 6.570312 20.105469 L 4.320312 20.105469 L 4.320312 17.855469 Z M 4.320312 17.855469 "/>
<path style="fill:none;stroke-width:0.4;stroke-linecap:butt;stroke-linejoin:miter;stroke:rgb(100%,100%,100%);stroke-opacity:1;stroke-miterlimit:4;" d="M 4.320312 1.894531 L 6.570312 1.894531 L 6.570312 4.144531 L 4.320312 4.144531 L 4.320312 1.894531 Z M 4.320312 1.894531 " transform="matrix(1,0,0,-1,0,22)"/>
<path style=" stroke:none;fill-rule:nonzero;fill:rgb(0.784314%,42.352941%,60.784314%);fill-opacity:1;" d="M 7.570312 17.855469 L 9.820312 17.855469 L 9.820312 20.105469 L 7.570312 20.105469 L 7.570312 17.855469 Z M 7.570312 17.855469 "/>
<path style="fill:none;stroke-width:0.4;stroke-linecap:butt;stroke-linejoin:miter;stroke:rgb(100%,100%,100%);stroke-opacity:1;stroke-miterlimit:4;" d="M 7.570312 1.894531 L 9.820312 1.894531 L 9.820312 4.144531 L 7.570312 4.144531 L 7.570312 1.894531 Z M 7.570312 1.894531 " transform="matrix(1,0,0,-1,0,22)"/>
<path style=" stroke:none;fill-rule:nonzero;fill:rgb(0.784314%,42.352941%,60.784314%);fill-opacity:1;" d="M 10.820312 17.855469 L 13.070312 17.855469 L 13.070312 20.105469 L 10.820312 20.105469 L 10.820312 17.855469 Z M 10.820312 17.855469 "/>
<path style="fill:none;stroke-width:0.4;stroke-linecap:butt;stroke-linejoin:miter;stroke:rgb(100%,100%,100%);stroke-opacity:1;stroke-miterlimit:4;" d="M 10.820312 1.894531 L 13.070312 1.894531 L 13.070312 4.144531 L 10.820312 4.144531 L 10.820312 1.894531 Z M 10.820312 1.894531 " transform="matrix(1,0,0,-1,0,22)"/>
<path style=" stroke:none;fill-rule:nonzero;fill:rgb(0.784314%,42.352941%,60.784314%);fill-opacity:1;" d="M 14.070312 17.855469 L 16.320312 17.855469 L 16.320312 20.105469 L 14.070312 20.105469 L 14.070312 17.855469 Z M 14.070312 17.855469 "/>
<path style="fill:none;stroke-width:0.4;stroke-linecap:butt;stroke-linejoin:miter;stroke:rgb(100%,100%,100%);stroke-opacity:1;stroke-miterlimit:4;" d="M 14.070312 1.894531 L 16.320312 1.894531 L 16.320312 4.144531 L 14.070312 4.144531 L 14.070312 1.894531 Z M 14.070312 1.894531 " transform="matrix(1,0,0,-1,0,22)"/>
<path style=" stroke:none;fill-rule:nonzero;fill:rgb(0.784314%,42.352941%,60.784314%);fill-opacity:1;" d="M 17.320312 17.855469 L 19.570312 17.855469 L 19.570312 20.105469 L 17.320312 20.105469 L 17.320312 17.855469 Z M 17.320312 17.855469 "/>
<path style="fill:none;stroke-width:0.4;stroke-linecap:butt;stroke-linejoin:miter;stroke:rgb(100%,100%,100%);stroke-opacity:1;stroke-miterlimit:4;" d="M 17.320312 1.894531 L 19.570312 1.894531 L 19.570312 4.144531 L 17.320312 4.144531 L 17.320312 1.894531 Z M 17.320312 1.894531 " transform="matrix(1,0,0,-1,0,22)"/>
<path style=" stroke:none;fill-rule:nonzero;fill:rgb(0.784314%,42.352941%,60.784314%);fill-opacity:1;" d="M 20.570312 17.855469 L 22.820312 17.855469 L 22.820312 20.105469 L 20.570312 20.105469 L 20.570312 17.855469 Z M 20.570312 17.855469 "/>
<path style="fill:none;stroke-width:0.4;stroke-linecap:butt;stroke-linejoin:miter;stroke:rgb(100%,100%,100%);stroke-opacity:1;stroke-miterlimit:4;" d="M 20.570312 1.894531 L 22.820312 1.894531 L 22.820312 4.144531 L 20.570312 4.144531 L 20.570312 1.894531 Z M 20.570312 1.894531 " transform="matrix(1,0,0,-1,0,22)"/>
<path style=" stroke:none;fill-rule:nonzero;fill:rgb(0.784314%,42.352941%,60.784314%);fill-opacity:1;" d="M 23.820312 17.855469 L 26.070312 17.855469 L 26.070312 20.105469 L 23.820312 20.105469 L 23.820312 17.855469 Z M 23.820312 17.855469 "/>
<path style="fill:none;stroke-width:0.4;stroke-linecap:butt;stroke-linejoin:miter;stroke:rgb(100%,100%,100%);stroke-opacity:1;stroke-miterlimit:4;" d="M 23.820312 1.894531 L 26.070312 1.894531 L 26.070312 4.144531 L 23.820312 4.144531 L 23.820312 1.894531 Z M 23.820312 1.894531 " transform="matrix(1,0,0,-1,0,22)"/>
<path style=" stroke:none;fill-rule:nonzero;fill:rgb(0.784314%,42.352941%,60.784314%);fill-opacity:1;" d="M 27.070312 17.855469 L 29.320312 17.855469 L 29.320312 20.105469 L 27.070312 20.105469 L 27.070312 17.855469 Z M 27.070312 17.855469 "/>
<path style="fill:none;stroke-width:0.4;stroke-linecap:butt;stroke-linejoin:miter;stroke:rgb(100%,100%,100%);stroke-opacity:1;stroke-miterlimit:4;" d="M 27.070312 1.894531 L 29.320312 1.894531 L 29.320312 4.144531 L 27.070312 4.144531 L 27.070312 1.894531 Z M 27.070312 1.894531 " transform="matrix(1,0,0,-1,0,22)"/>
<path style=" stroke:none;fill-rule:nonzero;fill:rgb(0.784314%,42.352941%,60.784314%);fill-opacity:1;" d="M 30.320312 17.855469 L 32.570312 17.855469 L 32.570312 20.105469 L 30.320312 20.105469 L 30.320312 17.855469 Z M 30.320312 17.855469 "/>
<path style="fill:none;stroke-width:0.4;stroke-linecap:butt;stroke-linejoin:miter;stroke:rgb(100%,100%,100%);stroke-opacity:1;stroke-miterlimit:4;" d="M 30.320312 1.894531 L 32.570312 1.894531 L 32.570312 4.144531 L 30.320312 4.144531 L 30.320312 1.894531 Z M 30.320312 1.894531 " transform="matrix(1,0,0,-1,0,22)"/>
<path style=" stroke:none;fill-rule:nonzero;fill:rgb(100%,100%,100%);fill-opacity:1;" d="M 31.632812 5.265625 L 32.796875 3.878906 L 35.277344 5.449219 L 30.332031 6.832031 L 31.355469 5.710938 L 21.484375 5.710938 L 21.832031 5.265625 L 31.632812 5.265625 "/>
<path style=" stroke:none;fill-rule:nonzero;fill:rgb(100%,100%,100%);fill-opacity:1;" d="M 22.421875 5.257812 L 22.136719 5.714844 L 12.335938 5.714844 L 11.296875 6.714844 L 8.640625 5.441406 L 13.980469 3.761719 L 12.625 5.257812 L 22.421875 5.257812 "/>
</g>
</svg>
